<?xml version="1.0" encoding="UTF-8" standalone="no"?>
<!-- Created with Inkscape (http://www.inkscape.org/) -->

<svg
   version="1.1"
   id="svg1"
   width="342"
   height="342"
   viewBox="0 0 342 342"
   xmlns="http://www.w3.org/2000/svg"
   xmlns:svg="http://www.w3.org/2000/svg">
  <defs
     id="defs1" />
  <g
     id="g1">
    <path
       style="fill: rgb(var(--fg-color-1))"
       d="M 153,340.37203 C 8.2251849,322.09947 -50.924082,147.51151 53.872926,47.783563 161.97369,-55.088337 340.45589,21.650143 340.45589,171 340.45589,272.10535 251.18497,352.76431 153,340.37203 Z m 46.74903,-20.31321 c 22.4746,-4.59687 50.2522,-16.69989 50.24968,-21.89437 -0.0171,-35.20943 -36.70254,-90.61328 -55.67702,-84.08573 -14.37909,4.94666 -32.16909,5.00665 -46.12859,0.15554 C 143.07431,212.45542 138.54958,211 138.13815,211 c -1.44676,0 -15.1875,14.5766 -20.07073,21.29164 -9.96995,13.70993 -18.970889,33.97025 -23.638565,53.20836 -3.795386,15.64291 -4.216339,14.58693 8.321145,20.87405 30.43133,15.26028 65.2675,20.17502 96.99903,13.68477 z M 82.539189,260 c 6.914724,-19.10209 18.648821,-38.56286 31.595611,-52.40069 7.9731,-8.52183 7.9731,-8.52183 2.49794,-15.15962 -40.285798,-48.84035 -0.60058,-122.367459 62.25081,-115.335679 55.6203,6.222771 82.14369,72.103429 46.45021,115.376299 -5.50866,6.6784 -5.50866,6.6784 0.91259,13.34905 17.94101,18.63781 31.03722,43.0666 38.69047,72.17064 2.7611,10.5 2.7611,10.5 11.03753,2.5 C 369.81976,189.78895 313.86846,31.599394 183.75,19.756672 42.543451,6.9047676 -36.318773,181.5738 66.02565,280.5 c 8.276427,8 8.276427,8 11.037528,-2.5 1.518606,-5.775 3.982811,-13.875 5.476011,-18 z M 187.46183,196.80791 c 36.58725,-12.10129 47.66404,-58.43467 20.54147,-85.92339 -32.92105,-33.365472 -88.92235,-10.28066 -88.99143,36.68398 -0.0521,35.45068 34.65492,60.41717 68.44996,49.23941 z m -28.3495,-13.38846 c -21.15176,-5.68842 -33.84733,-23.45396 -20.6894,-28.95169 4.38596,-1.83258 7.18408,-0.9378 12.83287,4.10369 11.32983,10.11176 27.82744,10.07183 39.4502,-0.0955 12.54025,-10.96991 25.08524,0.34933 13.781,12.43448 -10.77241,11.51657 -29.6814,16.72945 -45.37467,12.509 z m -18.52344,-44.49618 c -3.50665,-4.16742 -3.3923,-8.27371 0.33419,-12.00019 4.95601,-4.95602 12.02907,-3.67519 14.675,2.65741 3.96894,9.49901 -8.39947,17.19798 -15.00919,9.34278 z m 48.16685,1.09923 c -3.1236,-2.45702 -3.98315,-6.54247 -2.24947,-10.69175 2.54402,-6.0887 9.70615,-7.27218 14.57065,-2.40767 8.05749,8.05748 -3.33414,20.16863 -12.32118,13.09942 z"
       id="path1" />
  </g>
</svg>
