<?xml version="1.0" encoding="UTF-8" standalone="no"?>
<!-- Created with Inkscape (http://www.inkscape.org/) -->

<svg
   version="1.1"
   id="svg1"
   width="352"
   height="429"
   viewBox="0 0 352 429"
   xmlns="http://www.w3.org/2000/svg"
   xmlns:svg="http://www.w3.org/2000/svg">
  <defs
     id="defs1" />
  <g
     id="g1">
    <path
       style="fill:rgb(var(--fg-color-1, #333))"
       d="M 12.867102,426.1101 C 8.5284159,422.69729 6.2233986,416.24725 4.0701412,401.49391 -0.34384631,371.25086 -0.96124154,329.87892 2.227236,278 3.0209341,265.08594 3.4382517,223.37501 3.4628528,154.5 3.5,50.5 3.5,50.5 6.3022064,33 7.8434199,23.375 9.3177466,14.083151 9.5784878,12.351447 10.25803,7.8382936 13.34654,4.4149744 18.521955,2.4384653 22.746316,0.82516691 23.742543,0.82040171 34.761202,2.3607889 60.199336,5.9169908 71.271357,6.4302156 121,6.3582427 c 45.99304,-0.066566 51.55458,-0.2666012 78.5,-2.8234534 32.0822,-3.04428144 49.45934,-3.0556916 64,-0.042024 9.73745,2.0181643 13.47177,4.0276718 15.70118,8.4490927 2.55219,5.061572 7.52044,9.849209 27.29882,26.306428 25.74708,21.423665 42.97479,38.309278 44.39064,43.509171 0.85355,3.134758 -0.0913,50.310433 -2.37825,118.742543 -2.5409,76.03186 -3.39413,138.1655 -2.45875,179.05183 0.94633,41.36486 0.97334,41.11186 -4.6645,43.68064 -2.06561,0.94115 -3.94225,0.67575 -10.69711,-1.51282 -17.2515,-5.58948 -31.08268,-6.0475 -68.19203,-2.25818 -25.73895,2.62826 -69.87558,5.8981 -101.5,7.51958 -10.725,0.54991 -47.90181,1.00413 -82.615141,1.00939 -60.383237,0.009 -63.219138,-0.0722 -65.517757,-1.88034 z M 147,405.98574 c 31.01251,-1.12141 55.21748,-2.75644 104.5,-7.05892 33.63373,-2.9363 58.31049,-3.70648 68,-2.12233 l 5,0.81746 0.10309,-63.06097 c 0.0674,-41.22092 0.83274,-85.05309 2.20986,-126.56098 3.95208,-119.119539 3.90279,-109.687303 0.57688,-110.391746 -6.99238,-1.481018 -29.28566,-3.549743 -44.90199,-4.16672 -18.72032,-0.739611 -20.48359,-1.267752 -23.19156,-6.946411 -1.49978,-3.145086 -1.49919,-5.12073 0.008,-25.701052 0.97791,-13.3558 1.34443,-25.09494 0.91419,-29.280073 C 259.5,24.527996 259.5,24.527996 255.5,23.821628 248.52788,22.590406 235.10354,22.9537 215,24.917651 185.41801,27.80757 168.35361,28.149969 109.5,27.034522 61.285645,26.120719 47.736671,25.490092 33.391416,23.492105 29.282831,22.919867 29.282831,22.919867 28.674691,27.209934 28.340213,29.56947 27.370961,36 26.520796,41.5 25.2099,49.980618 24.978418,65.291934 24.997268,142.27333 c 0.0178,72.67486 -0.316205,96.99932 -1.675184,122 -2.062678,37.94636 -2.375066,103.61621 -0.562398,118.22667 0.682366,5.5 1.752325,13.2625 2.377688,17.25 l 1.137024,7.25 46.612801,-0.01 C 98.524239,406.9846 131.875,406.53265 147,405.98574 Z m 109,-80.62969 c -6.0848,-4.90102 -13.89683,-8.3867 -20.27035,-9.0445 -4.05165,-0.41817 -8.83392,0.32238 -20.60413,3.19059 -18.94526,4.61667 -20.89839,4.46915 -34.99871,-2.64337 -14.35729,-7.24215 -17.10907,-7.23419 -38.12681,0.11029 -21.22026,7.41524 -25.51406,7.4441 -46.5,0.3125 -8.25,-2.80357 -16.457016,-5.39839 -18.237814,-5.76626 -6.614779,-1.36646 -9.173456,-8.68673 -5.253343,-15.02961 4.23494,-6.85228 9.110585,-6.89555 28.421757,-0.25228 16.89067,5.81059 23.11824,5.8294 37.5694,0.11349 19.45983,-7.69701 28.26772,-8.0472 42.36038,-1.68418 11.14771,5.03333 18.24042,5.43561 33.63962,1.90798 14.85514,-3.403 22.33192,-4.09417 28.94561,-2.67578 9.35291,2.00584 20.14177,8.52579 29.35721,17.74123 4.98407,4.98408 5.07353,9.1875 0.29718,13.96385 -2.82981,2.82981 -4.12951,3.39837 -7.75,3.39029 -3.49737,-0.008 -5.23203,-0.72013 -8.85,-3.63424 z m 2.40051,-42.78096 c -1.70473,-0.74359 -4.09219,-2.95818 -5.30547,-4.92131 -3.05857,-4.94887 -7.43961,-8.4002 -12.33699,-9.71893 -5.8052,-1.56318 -13.5428,0.12439 -28.0607,6.12 -6.49145,2.68085 -13.24145,5.14328 -15,5.47205 -4.79275,0.89606 -11.82074,-1.05223 -23.6869,-6.56643 -14.787,-6.87152 -18.68845,-6.85237 -35.91833,0.17627 -10.23081,4.17349 -14.02229,5.22762 -20.21875,5.62135 -9.48088,0.60242 -13.61278,-0.66625 -31.897373,-9.79387 C 72.828855,262.4012 71.373095,261.22426 69.617865,255.73906 67.990846,250.65454 72.957166,243 77.883062,243 c 1.435685,0 8.911821,3.16089 16.613637,7.02421 19.557711,9.81036 20.918691,9.90509 36.384151,2.53259 19.1102,-9.10997 25.22005,-9.13228 47.74338,-0.17429 7.76832,3.08962 15.61482,5.61749 17.43666,5.61749 1.8266,0 7.60219,-2.00196 12.87577,-4.46306 12.18256,-5.68541 20.51377,-7.84074 30.56334,-7.90691 12.71644,-0.0837 21.49773,5.17713 29.66959,17.77501 4.92401,7.59094 5.18539,12.39382 0.90733,16.67188 -1.60769,1.6077 -3.59588,2.92308 -4.41821,2.92308 -0.82232,0 -2.09444,0.20859 -2.82692,0.46354 -0.73249,0.25494 -2.72656,-0.14486 -4.43128,-0.88845 z M 104.5,233.63276 c -5.398795,-1.80309 -31.541407,-15.39602 -33.825473,-17.58766 -4.588468,-4.40279 -2.526473,-14.62114 3.449995,-17.09668 4.031069,-1.66972 7.448641,-0.53926 19.789454,6.54592 6.110404,3.50814 12.083734,6.68755 13.274054,7.06534 5.45614,1.73171 10.67533,0.52239 21.62931,-5.01167 20.58288,-10.39867 29.65037,-11.00225 44.97434,-2.99375 14.76812,7.71801 18.5077,7.45339 43.69758,-3.09223 11.64587,-4.87548 19.475,-5.57891 29.20377,-2.62389 9.82426,2.98403 25.81745,13.71395 29.01578,19.46686 2.81127,5.05668 0.457,11.43937 -5.21163,14.12932 -4.61253,2.18878 -8.15224,1.40876 -13.19508,-2.90773 -10.96107,-9.38227 -20.14295,-10.45479 -36.8021,-4.29879 -24.67361,9.11755 -35.08387,9.03165 -53.93203,-0.44502 -11.31586,-5.6895 -15.23598,-5.29448 -32.27933,3.25273 -11.28201,5.65791 -13.55441,6.4441 -19.28864,6.67333 -3.575,0.14291 -8.3,-0.34133 -10.5,-1.07608 z m -0.60787,-46.93191 c -6.237592,-2.62729 -8.50614,-3.95646 -24.493449,-14.35097 -12.56116,-8.16692 -14.431018,-10.69184 -12.42325,-16.77543 1.535641,-4.65304 5.360095,-7.5752 9.909428,-7.57153 2.678887,0.002 6.414151,1.69522 14.422906,6.53736 C 103.31902,161.80236 110.57884,165 115.05519,165 c 1.63963,0 7.4053,-2.22015 12.8126,-4.93366 20.77012,-10.42293 34.44878,-10.67716 51.66618,-0.96026 9.98479,5.63507 16.11309,5.04766 36.59148,-3.50736 4.82229,-2.01455 11.27725,-3.88052 14.63964,-4.23196 11.30335,-1.18143 25.01354,4.9984 38.088,17.16808 5.03635,4.68782 5.60146,5.6258 5.60146,9.29755 0,7.28678 -8.60817,13.2965 -14.51641,10.1345 -1.24985,-0.66889 -4.6661,-3.16583 -7.59168,-5.54875 C 246.83962,177.93276 239.2751,175 233.21272,175 c -1.88336,0 -10.73431,2.475 -19.66879,5.5 -21.09177,7.14116 -25.07233,7.28934 -36.24012,1.34905 -4.29209,-2.28302 -9.79258,-5.20802 -12.22329,-6.5 C 161.91255,173.6652 159.02609,173 154.88748,173 c -5.22375,0 -7.19502,0.727 -20.70032,7.63428 -17.59701,8.99998 -21.48313,9.77817 -30.29503,6.06657 z m 147.66063,-54.2495 C 230.5385,122.07759 224.93442,121.79493 208,130.25465 197.5,135.5 197.5,135.5 187.49734,135.5 c -10.00267,0 -10.00267,0 -17.40017,-4.73286 -11.66491,-7.46311 -14.17306,-7.36459 -33.04647,1.29801 -16.83282,7.72601 -21.63243,7.17599 -50.0507,-5.73559 -9.075,-4.12314 -17.5125,-8.60913 -18.75,-9.96886 -3.256584,-3.57823 -3.099535,-10.19763 0.338894,-14.28397 4.078196,-4.846665 7.251548,-4.266594 24.869213,4.54595 13.588353,6.79704 15.999463,7.6771 22.260473,8.12507 6.49396,0.46464 7.65115,0.22207 15.40147,-3.22845 19.98632,-8.8981 29.55765,-9.56949 43.14011,-3.02609 6.99596,3.37033 8.37464,3.69553 14,3.30226 4.01889,-0.28095 9.79915,-1.81951 16.23984,-4.32263 9.20093,-3.57585 10.79907,-3.88867 20,-3.91473 7.73632,-0.0219 11.69776,0.501 17.5,2.31002 10.61019,3.30804 33.5675,14.45521 34.90077,16.94645 3.66966,6.85683 -2.29856,16.37351 -10.10111,16.10682 -1.26481,-0.0432 -8.12592,-2.95475 -15.2469,-6.47005 z M 315.49557,73.992835 C 314.56544,72.487858 282.64519,46 281.76169,46 c -0.41893,0 -0.76439,2.1375 -0.76768,4.75 -0.003,2.6125 -0.28885,8.382808 -0.63456,12.822906 l -0.62857,8.072906 17.38456,1.270543 c 9.56151,0.698799 17.57206,1.453491 17.80123,1.677094 0.81002,0.790355 1.193,0.393013 0.5789,-0.600614 z"
       id="path1" />
  </g>
</svg>
