<?xml version="1.0" encoding="UTF-8" standalone="no"?>
<!-- Created with Inkscape (http://www.inkscape.org/) -->

<svg
   version="1.1"
   id="svg1"
   width="339.72833"
   height="340.94189"
   viewBox="0 0 339.72833 340.94189"
   xmlns="http://www.w3.org/2000/svg"
   xmlns:svg="http://www.w3.org/2000/svg">
  <defs
     id="defs1" />
  <circle
     style="fill:#ff00ff"
     id="path9"
     cx="169.84496"
     cy="170.3573"
     r="160" />
  <path
     style="display:inline"
     d="M 152.27243,339.68181 C 7.4976186,321.40925 -51.651648,146.82129 53.14536,47.093348 c 108.10076,-102.8719 286.58296,-26.13342 286.58296,123.216432 0,101.10535 -89.27092,181.76431 -187.45589,169.37203 z m 46.74903,-20.31321 c 22.4746,-4.59687 50.2522,-16.69989 50.24968,-21.89437 -0.0171,-35.20943 -36.70254,-90.61328 -55.67702,-84.08573 -14.37909,4.94666 -32.16909,5.00665 -46.12859,0.15554 -5.11879,-1.77884 -9.64352,-3.23426 -10.05495,-3.23426 -1.44676,0 -15.1875,14.5766 -20.07073,21.29164 -9.96995,13.70993 -18.97088,33.97025 -23.63856,53.20836 -3.79539,15.64291 -4.21634,14.58693 8.32114,20.87405 30.43133,15.26028 65.2675,20.17502 96.99903,13.68477 z M 81.81162,259.30978 c 6.91473,-19.10209 18.64882,-38.56286 31.59561,-52.40069 7.9731,-8.52182 7.9731,-8.52182 2.49794,-15.15961 -40.285794,-48.84035 -0.60058,-122.367464 62.25081,-115.335684 55.6203,6.222771 82.14369,72.103434 46.45021,115.376304 -5.50866,6.6784 -5.50866,6.6784 0.91259,13.34905 17.94101,18.63781 31.03722,43.0666 38.69047,72.17064 2.7611,10.5 2.7611,10.5 11.03753,2.5 C 369.09219,189.09873 313.14089,30.909179 183.02243,19.066457 41.815885,6.2145528 -37.046339,180.88358 65.298084,279.80978 c 8.276427,8 8.276427,8 11.037528,-2.5 1.518606,-5.775 3.982808,-13.875 5.476008,-18 z m 104.92264,-63.19209 c 36.58725,-12.10129 47.66404,-58.43466 20.54147,-85.92338 -32.92105,-33.365477 -88.92235,-10.280657 -88.99143,36.68397 -0.0521,35.45068 34.65492,60.41717 68.44996,49.23941 z m -28.3495,-13.38846 c -21.15176,-5.68842 -33.84733,-23.45396 -20.6894,-28.95169 4.38596,-1.83258 7.18408,-0.9378 12.83287,4.10369 11.32983,10.11176 27.82744,10.07183 39.4502,-0.0955 12.54025,-10.96991 25.08524,0.34933 13.781,12.43448 -10.77241,11.51657 -29.6814,16.72944 -45.37467,12.509 z m -18.52344,-44.49618 c -3.50665,-4.16742 -3.3923,-8.27371 0.33419,-12.00019 4.95601,-4.95602 12.02907,-3.67519 14.675,2.65741 3.96894,9.49901 -8.39947,17.19798 -15.00919,9.34278 z m 48.16685,1.09923 c -3.1236,-2.45702 -3.98315,-6.54247 -2.24947,-10.69175 2.54402,-6.0887 9.70615,-7.27218 14.57065,-2.40767 8.05749,8.05748 -3.33414,20.16863 -12.32118,13.09942 z"
     id="path5-0" />
</svg>
