<?xml version="1.0" encoding="UTF-8" standalone="no"?>
<!-- Created with Inkscape (http://www.inkscape.org/) -->

<svg
   version="1.1"
   id="svg1"
   width="460"
   height="474"
   viewBox="0 0 460 474"
   xmlns="http://www.w3.org/2000/svg"
   xmlns:svg="http://www.w3.org/2000/svg">
  <defs
     id="defs1" />
  <g
     id="g1">
    <path
       style="fill:#000000"
       d="m 52,451.625 c 0,-12.30625 0.277261,-23.76131 0.616136,-25.45568 0.338875,-1.69437 2.138875,-4.85966 4,-7.03396 C 59.718661,415.51075 60,414.63445 60,408.59541 c 0,-5.95634 -1.100513,-9.5207 -11.5,-37.24637 L 37,340.68934 V 303.94278 267.19623 L 23.75,266.84811 C 11.78747,266.53383 10.182739,266.27371 7.2349113,264.17116 0.06871072,259.05984 0.5,265.05834 0.5,170.5 c 0,-83.20151 0.0423174,-85.071844 2,-88.39547 1.1,-1.867508 3.2703911,-4.342508 4.8230913,-5.5 C 10.145957,74.500168 10.154651,74.499979 116.07309,74.236552 L 222,73.973104 V 68.64154 c 0,-8.644461 0.68928,-8.441874 -30,-8.817333 -29.19364,-0.357162 -30.64468,-0.635041 -36.9401,-7.074145 -8.92837,-9.13215 -8.39207,-24.233232 1.14625,-32.275809 C 162.7763,14.934392 162.08349,15 214.01334,15 h 48.07757 l 2.45454,-2.454545 C 266.50287,10.588043 267,9.0690236 267,5.0454545 V 0 h 7.5 7.5 l -0.006,5.25 c -0.003,2.8875 -0.50388,7.05 -1.11292,9.25 -1.46927,5.307353 -9.07415,12.912233 -14.3815,14.381501 -2.66345,0.737338 -19.78804,1.109209 -51.25,1.112922 -45.91279,0.0054 -47.3066,0.06218 -49.25,2.005577 -2.55355,2.553554 -2.64547,8.105881 -0.17126,10.345012 C 167.41899,43.784171 170.66148,44 190.69225,44 c 25.51,0 32.04899,0.802522 36.94082,4.533696 6.31613,4.817554 8.57538,8.879808 9.72849,17.492374 l 1.06402,7.947198 105.71412,0.263366 c 105.70218,0.263336 105.71444,0.263604 108.53721,2.367896 1.5527,1.157492 3.72309,3.632492 4.82309,5.5 1.95768,3.323626 2,5.19396 2,88.39547 0,94.55834 0.43129,88.55984 -6.73491,93.67116 -2.95875,2.11034 -4.5317,2.36071 -16.76509,2.66852 l -13.5,0.33968 0.30611,36.66032 0.30611,36.66032 -11.55611,30.75437 C 401.09707,399.0891 400,402.63405 400,408.59541 c 0,6.03904 0.28134,6.91534 3.38386,10.53995 1.86113,2.1743 3.66113,5.33959 4,7.03396 C 407.72274,427.86369 408,439.31875 408,451.625 V 474 h -7.48087 -7.48087 L 392.76913,451.75 392.5,429.5 l -27,-0.31394 c -14.85,-0.17266 -34.7625,-0.0118 -44.25,0.35749 L 304,430.21498 V 452.10749 474 h -7.5 -7.5 v -23.53212 c 0,-24.91578 0.46342,-27.95371 4.86198,-31.87287 C 295.65636,416.99621 296,415.5782 296,409.77266 v -6.91736 l -7.07754,-8.58772 c -13.35439,-16.2039 -23.77394,-34.09339 -27.55565,-47.31074 -2.07573,-7.2548 -3.06612,-39.46058 -1.44661,-47.04097 1.53714,-7.19483 5.00025,-12.19707 10.80741,-15.61059 3.9987,-2.3505 5.86668,-2.79618 11.52239,-2.74915 l 6.75,0.0561 V 274.30613 267 h -59 -59 v 7.30613 7.30612 l 6.75,-0.0561 c 5.65571,-0.047 7.52369,0.39865 11.52239,2.74915 10.13795,5.95922 12.21309,13.04385 11.46839,39.15365 -0.42577,14.92788 -0.89923,19.249 -2.74373,25.04107 -4.51808,14.18755 -13.55417,29.55039 -26.91951,45.76758 L 164,402.8553 v 6.91736 c 0,5.80554 0.34364,7.22355 2.13802,8.82235 C 170.53658,422.51417 171,425.5521 171,450.46788 V 474 H 163.5 156 V 451.5 429 l -31.75,0.004 c -17.4625,0.002 -37.4875,0.29667 -44.5,0.65432 L 67,430.30864 V 452.15432 474 H 59.5 52 Z m 96.0078,-45.875 0.008,-8.25 6.6561,-7.4813 c 12.13668,-13.64134 21.52865,-27.5766 26.97146,-40.0187 2.79081,-6.37971 2.84943,-6.89851 3.16786,-28.03372 0.31269,-20.75436 0.24913,-21.60186 -1.7562,-23.41666 -2.91152,-2.63489 -7.91412,-2.44161 -10.21066,0.3945 C 171.27373,300.88353 171,303.0605 171,313.61078 V 326 h -7.5 -7.5 v -48.4349 c 0,-28.68585 -0.39332,-49.46942 -0.96463,-50.97207 -1.53327,-4.03281 -7.71047,-5.04422 -11.28537,-1.84779 -1.59617,1.42719 -1.75,4.32011 -1.75,32.90975 V 289 h -8 -8 v -38.5 c 0,-37.16667 -0.0693,-38.56926 -2,-40.5 -2.57133,-2.57133 -7.42867,-2.57133 -10,0 -1.93081,1.93081 -2,3.33333 -2,40.54206 v 38.54207 L 104.25,288.79206 96.5,288.5 96.235309,257.58476 C 96.044887,235.34384 95.633752,226.26362 94.770027,225.2229 91.619273,221.42647 84.598741,222.29499 82.928592,226.68782 82.417866,228.03113 82,242.6009 82,259.0651 V 289 H 74.5 67 v -23.54545 -23.54546 l -2.454545,-2.45454 c -2.998632,-2.99864 -5.450432,-3.10374 -8.910596,-0.38197 L 53,241.14516 v 49.59816 49.59816 l 11,29.3374 c 10.410556,27.76534 11,29.73886 11,36.82926 V 414 H 111.5 148 Z M 385,406.50814 c 0,-7.0904 0.58944,-9.06392 11,-36.82926 l 11,-29.3374 v -34.67074 c 0,-33.33741 -0.0769,-34.74765 -2,-36.67074 -2.61791,-2.61791 -6.79335,-2.54277 -9.68555,0.17431 -2.0802,1.95425 -2.31445,3.06759 -2.31445,11 V 289 h -7.5 -7.5 v -13.4349 c 0,-7.3892 -0.41787,-14.53397 -0.92859,-15.87728 -1.66618,-4.38239 -8.68993,-5.26226 -11.82756,-1.48164 -0.76282,0.91915 -1.28622,6.58498 -1.46528,15.86186 L 363.5,288.5 l -7.75,0.29206 -7.75,0.29207 v -14.88708 c 0,-13.6489 -0.16742,-15.03858 -2.01291,-16.70873 -2.58076,-2.33556 -7.39342,-2.33556 -9.97418,0 C 334.1679,259.15803 334,260.54824 334,274.15499 V 289 h -7.99966 -7.99967 l 0.24967,-38.38393 c 0.23761,-36.53178 0.15774,-38.48604 -1.65533,-40.5 -2.77761,-3.08539 -7.88547,-2.83356 -10.52243,0.51879 -2.0411,2.59483 -2.07258,3.4911 -2.07258,59 V 326 h -7.5 -7.5 v -12.38922 c 0,-10.55028 -0.27373,-12.72725 -1.84417,-14.66666 -2.27608,-2.81084 -7.29159,-3.03622 -10.14292,-0.4558 -1.89145,1.71174 -2.01164,3.0342 -1.99182,21.91667 0.0196,18.64198 0.19515,20.58822 2.42819,26.91597 4.23632,12.00439 14.37788,27.52344 27.96838,42.7984 l 6.56673,7.38064 0.008,8.25 L 312,414 H 348.5 385 Z M 421.68233,251.63301 444.5,251.5 l 0.31969,-24 c 0.17582,-13.2 0.01,-49.7625 -0.3696,-81.25 L 443.76081,89 H 229.3804 15 l 0.0013,40.25 c 7.26e-4,22.1375 0.298938,58.8125 0.662695,81.5 L 16.32539,252 H 26.662695 37 v -3.45078 c 0,-16.44608 10.79923,-27.69128 25.15238,-26.19108 5.512029,0.57612 5.964687,0.46415 6.778663,-1.67677 1.439158,-3.78527 6.06098,-8.63167 10.444748,-10.95226 3.202129,-1.69508 5.740572,-2.16549 11.353751,-2.10401 6.287226,0.0688 7.308881,-0.1708 7.838242,-1.83867 1.012823,-3.19112 6.498196,-8.77944 10.743716,-10.94534 5.37292,-2.74107 14.00408,-2.74107 19.377,0 4.24552,2.1659 9.73089,7.75422 10.74372,10.94534 0.52936,1.66787 1.55101,1.90752 7.83824,1.83867 8.48079,-0.0929 13.76126,2.16368 18.49138,7.90214 4.26057,5.16881 5.23816,9.61781 5.23816,23.83878 V 252 h 59 59 l 0.01,-20.75 c 0.009,-19.83325 0.11654,-20.97932 2.42638,-25.9404 7.49821,-16.10465 30.18459,-17.01883 39.25857,-1.58199 2.71171,4.61321 2.81709,5.31673 3.1595,21.09268 l 0.35423,16.32029 3.85892,-0.65196 c 4.35174,-0.73522 13.95898,1.63328 15.84554,3.90644 0.99603,1.20015 1.88988,1.01332 5.88082,-1.22918 9.38354,-5.2726 21.38112,-2.80849 28.31081,5.81458 2.97414,3.70093 3.48512,3.94888 6.98451,3.38931 2.07659,-0.33206 14.04356,-0.6636 26.59328,-0.73676 z M 193,229.5 V 222 h 37 37 v 7.5 7.5 H 230 193 Z M 30.417143,206.64467 c -0.286049,-0.74543 -0.384426,-4.23293 -0.218616,-7.75 L 30.5,192.5 37.75,192.20619 45,191.91238 V 199.95619 208 h -7.031385 c -4.994048,0 -7.18208,-0.3927 -7.551472,-1.35533 z M 60,200 v -8.08762 l 7.25,0.29381 7.25,0.29381 v 7.5 7.5 l -7.25,0.29381 -7.25,0.29381 z m 118.41714,6.64467 c -0.28605,-0.74543 -0.38442,-4.23293 -0.21861,-7.75 L 178.5,192.5 l 7.25,-0.29381 7.25,-0.29381 V 199.95619 208 h -7.03138 c -4.99405,0 -7.18208,-0.3927 -7.55148,-1.35533 z M 208,200 v -8.08762 l 7.25,0.29381 7.25,0.29381 v 7.5 7.5 l -7.25,0.29381 -7.25,0.29381 z m 29.41714,6.64467 c -0.28605,-0.74543 -0.38442,-4.23293 -0.21861,-7.75 L 237.5,192.5 l 7.25,-0.29381 7.25,-0.29381 V 199.95619 208 h -7.03138 c -4.99405,0 -7.18208,-0.3927 -7.55148,-1.35533 z M 267,200 v -8.08762 l 7.25,0.29381 7.25,0.29381 v 7.5 7.5 l -7.25,0.29381 -7.25,0.29381 z m 89,0 v -8.08762 l 7.25,0.29381 7.25,0.29381 v 7.5 7.5 l -7.25,0.29381 -7.25,0.29381 z m 29.41714,6.64467 c -0.28605,-0.74543 -0.38442,-4.23293 -0.21861,-7.75 L 385.5,192.5 l 7.25,-0.29381 7.25,-0.29381 V 199.95619 208 h -7.03138 c -4.99405,0 -7.18208,-0.3927 -7.55148,-1.35533 z M 415,200 v -8.08762 l 7.25,0.29381 7.25,0.29381 v 7.5 7.5 l -7.25,0.29381 -7.25,0.29381 z M 45,170.5 V 163 h 7.5 7.5 v 7.5 7.5 H 52.5 45 Z m 30,0 V 163 h 7 7 v 7.5 7.5 h -7 -7 z m 29,0 V 163 h 7.5 7.5 v 7.5 7.5 h -7.5 -7.5 z m 30,0 V 163 h 7.5 7.5 v 7.5 7.5 h -7.5 -7.5 z m 29,0 V 163 h 7.5 7.5 v 7.5 7.5 h -7.5 -7.5 z m 30,0 V 163 h 7.5 7.5 v 7.5 7.5 h -7.5 -7.5 z m 30,0 V 163 h 7 7 v 7.5 7.5 h -7 -7 z m 29,0 V 163 h 7.5 7.5 v 7.5 7.5 h -7.5 -7.5 z m 30,0 V 163 h 7.5 7.5 v 7.5 7.5 h -7.5 -7.5 z m 29,0 V 163 h 7.5 7.5 v 7.5 7.5 h -7.5 -7.5 z m 30,0 V 163 h 7.5 7.5 v 7.5 7.5 h -7.5 -7.5 z m 30,0 V 163 h 7 7 v 7.5 7.5 h -7 -7 z m 29,0 V 163 h 7.5 7.5 v 7.5 7.5 H 407.5 400 Z M 30,140.5 V 133 h 7.5 7.5 v 7.5 7.5 H 37.5 30 Z m 30,-0.0438 v -7.54381 l 7.25,0.29381 7.25,0.29381 0.29381,7.25 0.293809,7.25 H 67.54381 60 Z M 89.20619,140.75 89.5,133.5 96.75,133.20619 104,132.91238 V 140.45619 148 H 96.45619 88.912381 Z M 119,140.5 V 133 h 7.5 7.5 v 7.5 7.5 h -7.5 -7.5 z m 30,0 V 133 h 7 7 v 7.5 7.5 h -7 -7 z m 29,0 V 133 h 7.5 7.5 v 7.5 7.5 h -7.5 -7.5 z m 30,-0.0438 v -7.54381 l 7.25,0.29381 7.25,0.29381 0.29381,7.25 0.29381,7.25 H 215.54381 208 Z m 29.20619,0.29381 0.29381,-7.25 7.25,-0.29381 7.25,-0.29381 v 7.5438 V 148 h -7.54381 -7.54381 z M 267,140.5 V 133 h 7.5 7.5 v 7.5 7.5 h -7.5 -7.5 z m 30,0 V 133 h 7 7 v 7.5 7.5 h -7 -7 z m 29,0 V 133 h 7.5 7.5 v 7.5 7.5 h -7.5 -7.5 z m 30,-0.0438 v -7.54381 l 7.25,0.29381 7.25,0.29381 0.29381,7.25 0.29381,7.25 H 363.54381 356 Z m 29.20619,0.29381 0.29381,-7.25 7.25,-0.29381 7.25,-0.29381 v 7.5438 V 148 h -7.54381 -7.54381 z M 415,140.5 V 133 h 7.5 7.5 v 7.5 7.5 H 422.5 415 Z M 45,111.5 V 104 h 7.5 7.5 v 7.5 7.5 H 52.5 45 Z m 30,0 V 104 h 7 7 v 7.5 7.5 h -7 -7 z m 29,0 V 104 h 7.5 7.5 v 7.5 7.5 h -7.5 -7.5 z m 30,0.0438 V 104 h 7.54381 7.54381 l -0.29381,7.25 -0.29381,7.25 -7.25,0.29381 -7.25,0.29381 z m 29.66667,6.78952 C 163.3,117.96667 163,114.59167 163,110.83333 V 104 h 7.5 7.5 v 7.5 7.5 h -6.83333 c -3.75834,0 -7.13334,-0.3 -7.5,-0.66667 z M 193,111.5 V 104 h 7.5 7.5 v 7.5 7.5 h -7.5 -7.5 z m 30,0 V 104 h 7 7 v 7.5 7.5 h -7 -7 z m 29,0 V 104 h 7.5 7.5 v 7.5 7.5 h -7.5 -7.5 z m 30,0.0438 V 104 h 7.54381 7.54381 l -0.29381,7.25 -0.29381,7.25 -7.25,0.29381 -7.25,0.29381 z m 29.66667,6.78952 C 311.3,117.96667 311,114.59167 311,110.83333 V 104 h 7.5 7.5 v 7.5 7.5 h -6.83333 c -3.75834,0 -7.13334,-0.3 -7.5,-0.66667 z M 341,111.5 V 104 h 7.5 7.5 v 7.5 7.5 h -7.5 -7.5 z m 30,0 V 104 h 7 7 v 7.5 7.5 h -7 -7 z m 29,0 V 104 h 7.5 7.5 v 7.5 7.5 h -7.5 -7.5 z"
       id="path1" />
  </g>
</svg>
